<svg width="47" height="50" viewBox="0 0 47 50" fill="none" xmlns="http://www.w3.org/2000/svg">
<g clip-path="url(#clip0_9157_121)">
<mask id="mask0_9157_121" style="mask-type:luminance" maskUnits="userSpaceOnUse" x="0" y="0" width="47" height="51">
<path d="M46.5046 0H0.669922V50.0015H46.5046V0Z" fill="white"/>
</mask>
<g mask="url(#mask0_9157_121)">
<path d="M15.0776 9.32294L23.5525 2.9668L27.3661 7.2042L34.9935 11.0179L45.1633 12.7129L43.8921 22.0352L41.7734 31.7812L34.9935 41.5273L27.3661 47.4597L23.5525 49.1546L19.7388 47.4597L9.14526 38.1374L3.21289 24.5776V12.7129L15.0776 9.32294Z" fill="white"/>
<path d="M45.7079 23.8997C45.8098 23.3416 45.9006 22.7936 45.9793 22.259C45.9804 22.2478 45.9826 22.2378 45.9848 22.2266C46.7926 16.7241 46.4247 12.6189 46.4037 12.3913L46.2618 10.8901H44.765C39.5442 10.8901 34.6237 9.34869 30.1397 6.30838C28.2274 5.01254 26.8047 3.70332 25.925 2.80483C25.5206 2.37401 25.1051 1.90747 24.6862 1.40186L23.5916 0L23.5605 0.0401807L23.5883 5.15205C23.5883 5.15317 23.5905 5.15429 23.5916 5.15541C26.2773 7.90891 33.0238 13.6213 43.1961 14.1648C43.2515 16.4763 43.1474 21.2545 41.759 26.4846H45.1583C45.3123 25.854 45.4486 25.2324 45.5705 24.6218C45.5738 24.6073 45.576 24.5939 45.5793 24.5794C45.5826 24.5627 45.586 24.546 45.5893 24.5292C45.6225 24.3629 45.6547 24.1966 45.6846 24.0325C45.6923 23.989 45.7012 23.9443 45.709 23.9008L45.7079 23.8997Z" fill="#EA4335"/>
<path d="M23.5903 0.0111613V0L22.4536 1.44762C22.0447 1.93537 21.6403 2.38406 21.247 2.79479C21.2492 2.79702 21.2514 2.79925 21.2536 2.80149C20.3739 3.69997 18.9502 5.01031 17.0367 6.30838C12.5516 9.34869 7.63106 10.8901 2.4114 10.8901H0.913422L0.771601 12.3913C0.75055 12.6189 0.382702 16.7263 1.19042 22.2322L1.18488 22.2266C1.30121 22.9878 1.42642 23.7647 1.59039 24.5794C1.72224 25.2368 1.86406 25.8719 2.01142 26.4846H5.41513C4.02683 21.2545 3.92269 16.4763 3.97808 14.1648C14.1205 13.6235 20.8836 7.91561 23.5859 5.15205C23.587 5.15317 23.5881 5.15429 23.5892 5.15541V0.0111613H23.5903Z" fill="#4285F4"/>
<path d="M23.5605 46.5335C14.5382 43.6427 8.51636 37.1893 5.65559 27.3428C5.57249 27.0549 5.49382 26.7691 5.41737 26.4834H2.01367C2.18209 27.1899 2.38041 27.9321 2.6153 28.7034C2.83358 29.4222 3.06404 30.1019 3.30003 30.7403L3.30225 30.7369C6.53973 39.6626 12.5882 45.961 20.9756 49.1364L20.9733 49.1386C21.0354 49.162 21.0996 49.1855 21.1628 49.2089C21.1927 49.22 21.2215 49.2312 21.2515 49.2424C21.5284 49.3439 21.8132 49.4444 22.1046 49.5426C22.1345 49.5527 22.1644 49.5627 22.1932 49.5728C22.2265 49.5839 22.2586 49.5951 22.2919 49.6062C22.7251 49.7502 23.1483 49.8819 23.5583 50.0002V46.5324L23.5605 46.5335Z" fill="#34A853"/>
<path d="M45.1583 26.4845C45.1583 26.4845 45.1583 26.4845 45.1583 26.4834H41.759C41.6837 26.768 41.605 27.0549 41.5209 27.3428C38.6578 37.1994 32.5983 43.6472 23.5605 46.5335C23.5628 46.5335 23.565 46.5346 23.5605 46.5335V50.0013C23.5683 49.9991 23.904 49.9098 24.0425 49.8719L24.0602 49.8674C24.0602 49.8674 24.0636 49.8674 24.0647 49.8663C24.2231 49.8228 24.4148 49.7647 24.8314 49.6241C24.8713 49.6107 24.9134 49.5962 24.9577 49.5817C25.0319 49.5571 25.1051 49.5315 25.1793 49.5058C25.351 49.4466 25.546 49.3786 25.7654 49.2993C25.8552 49.267 25.946 49.2346 26.0358 49.2011C26.079 49.1855 26.1211 49.1698 26.1665 49.1531L26.1643 49.1509C34.791 45.8973 40.948 39.3456 44.1235 30.0327C44.2708 29.6052 44.416 29.1632 44.5556 28.7034C44.7904 27.9321 44.9888 27.1899 45.1572 26.4845H45.1583Z" fill="#FBBC04"/>
<path d="M12.1649 22.0174C11.8093 21.8109 11.5289 21.5263 11.3262 21.1658C11.1234 20.8053 11.0215 20.4023 11.0215 19.9592C11.0215 19.5161 11.1234 19.1143 11.3262 18.7527C11.5289 18.3922 11.8093 18.1076 12.1649 17.9011C12.5206 17.6947 12.9173 17.5908 13.3527 17.5908C13.6873 17.5908 13.9942 17.6556 14.2734 17.7839C14.5515 17.9123 14.7942 18.0953 14.9991 18.332L14.6158 18.7059C14.444 18.4994 14.2568 18.3475 14.053 18.2505C13.8502 18.1533 13.6164 18.1054 13.3527 18.1054C13.0258 18.1054 12.7267 18.1824 12.4541 18.3364C12.1816 18.4904 11.9644 18.7081 11.8037 18.9882C11.642 19.2695 11.5622 19.5932 11.5622 19.9604C11.5622 20.3276 11.6431 20.6512 11.8037 20.9325C11.9655 21.2138 12.1816 21.4303 12.4541 21.5843C12.7267 21.7384 13.0258 21.8154 13.3527 21.8154C13.8978 21.8154 14.3598 21.5899 14.7421 21.1379L15.1321 21.5174C14.9227 21.7663 14.6645 21.9638 14.3587 22.1089C14.053 22.254 13.7172 22.3277 13.3527 22.3277C12.9173 22.3277 12.5206 22.2239 12.1649 22.0174Z" fill="#5F6368"/>
<path d="M16.3309 22.1065C16.0882 21.9592 15.8988 21.7549 15.7625 21.496C15.6262 21.2359 15.5586 20.9446 15.5586 20.6187C15.5586 20.2928 15.6229 20.0193 15.7503 19.7582C15.8777 19.497 16.0594 19.2871 16.2943 19.1309C16.5292 18.9746 16.8018 18.8965 17.1109 18.8965C17.42 18.8965 17.697 18.9668 17.9275 19.1086C18.1579 19.2503 18.3352 19.4457 18.4582 19.6945C18.5812 19.9434 18.6432 20.2281 18.6432 20.5495C18.6432 20.6131 18.6366 20.6678 18.6244 20.7136H16.0915C16.1037 20.958 16.1625 21.1656 16.2677 21.3341C16.3719 21.5027 16.5059 21.6299 16.6666 21.7136C16.8283 21.7984 16.9967 21.8398 17.1729 21.8398C17.584 21.8398 17.8997 21.6456 18.1224 21.2571L18.5745 21.4792C18.436 21.7415 18.2488 21.948 18.0116 22.0998C17.7746 22.2516 17.4887 22.3275 17.1541 22.3275C16.8483 22.3275 16.5735 22.2538 16.3309 22.1054V22.1065ZM18.0781 20.2705C18.0693 20.1354 18.0316 20.0003 17.9651 19.8653C17.8975 19.7302 17.7923 19.6164 17.6482 19.5238C17.5042 19.4311 17.3225 19.3843 17.1042 19.3843C16.8527 19.3843 16.64 19.4658 16.466 19.6276C16.2921 19.7905 16.1779 20.0048 16.1237 20.2705H18.0781Z" fill="#5F6368"/>
<path d="M19.3281 18.9978H19.8367V19.5101H19.8621C19.9375 19.3204 20.0649 19.173 20.2455 19.067C20.4261 18.9621 20.6222 18.9085 20.8361 18.9085C20.928 18.9085 21.0056 18.9152 21.0687 18.9275V19.4789C20.9978 19.4621 20.9014 19.4532 20.7796 19.4532C20.507 19.4532 20.2865 19.5436 20.117 19.7255C19.9475 19.9075 19.8621 20.143 19.8621 20.4343V22.2257H19.3281V18.9967V18.9978ZM22.58 22.2145C22.4692 22.1721 22.3761 22.1152 22.3008 22.0437C22.2166 21.9634 22.1545 21.8707 22.1125 21.7647C22.0704 21.6598 22.0493 21.5303 22.0493 21.3785V19.4856H21.4898V18.9978H22.0493V18.0859H22.5833V18.9978H23.3623V19.4856H22.5833V21.2457C22.5833 21.4232 22.6166 21.5538 22.6842 21.6386C22.7639 21.7312 22.8792 21.7781 23.0298 21.7781C23.1517 21.7781 23.2692 21.7424 23.3822 21.6709V22.1966C23.319 22.2268 23.2559 22.2469 23.1905 22.2603C23.1251 22.2726 23.0432 22.2793 22.9423 22.2793C22.8127 22.2793 22.6919 22.258 22.5811 22.2156L22.58 22.2145Z" fill="#5F6368"/>
<path d="M24.1521 18.2885C24.0767 18.2127 24.0391 18.1223 24.0391 18.0163C24.0391 17.9102 24.0767 17.8209 24.1521 17.7473C24.2274 17.6736 24.3171 17.6367 24.4224 17.6367C24.5276 17.6367 24.6174 17.6736 24.6928 17.7473C24.7681 17.8209 24.8058 17.9113 24.8058 18.0163C24.8058 18.1211 24.7692 18.2127 24.6961 18.2885C24.623 18.3645 24.5321 18.4024 24.4224 18.4024C24.3127 18.4024 24.2274 18.3645 24.1521 18.2885ZM24.1587 18.9973H24.6872V22.2263H24.1587V18.9973Z" fill="#5F6368"/>
<path d="M25.9597 19.4853H25.3691V18.9976H25.9597V18.6493C25.9597 18.4462 26.0062 18.2698 26.0982 18.118C26.1902 17.9663 26.3142 17.849 26.4694 17.7665C26.6245 17.6839 26.7962 17.6426 26.9846 17.6426C27.1729 17.6426 27.3214 17.6682 27.4555 17.7185V18.2441C27.3801 18.2151 27.3092 18.1906 27.2416 18.1716C27.174 18.1526 27.0954 18.1426 27.0023 18.1426C26.8638 18.1426 26.7441 18.1928 26.6445 18.2911C26.5436 18.3904 26.4937 18.5288 26.4937 18.7062V18.9976H28.4792V22.2265H27.9507V19.4853H26.4926V22.2265H25.9586V19.4853H25.9597ZM27.9452 18.32C27.8699 18.2441 27.8322 18.1538 27.8322 18.0477C27.8322 17.9417 27.8699 17.8513 27.9452 17.7754C28.0205 17.6995 28.1103 17.6615 28.2155 17.6615C28.3208 17.6615 28.4106 17.6995 28.4859 17.7754C28.5612 17.8513 28.5989 17.9417 28.5989 18.0477C28.5989 18.1538 28.5623 18.2441 28.4892 18.32C28.4161 18.396 28.3252 18.4339 28.2155 18.4339C28.1058 18.4339 28.0205 18.396 27.9452 18.32Z" fill="#5F6368"/>
<path d="M29.9578 22.1065C29.7152 21.9592 29.5257 21.7549 29.3894 21.496C29.2531 21.2359 29.1855 20.9446 29.1855 20.6187C29.1855 20.2928 29.2498 20.0193 29.3772 19.7582C29.5047 19.497 29.6864 19.2871 29.9212 19.1309C30.1561 18.9746 30.4287 18.8965 30.7378 18.8965C31.047 18.8965 31.3239 18.9668 31.5544 19.1086C31.7848 19.2503 31.9621 19.4457 32.0851 19.6945C32.2081 19.9434 32.2702 20.2281 32.2702 20.5495C32.2702 20.6131 32.2635 20.6678 32.2513 20.7136H29.7185C29.7307 20.958 29.7894 21.1656 29.8947 21.3341C29.9988 21.5027 30.1329 21.6299 30.2935 21.7136C30.4553 21.7984 30.6237 21.8398 30.7999 21.8398C31.2109 21.8398 31.5267 21.6456 31.7494 21.2571L32.2015 21.4792C32.063 21.7415 31.8757 21.948 31.6386 22.0998C31.4015 22.2516 31.1157 22.3275 30.781 22.3275C30.4752 22.3275 30.2004 22.2538 29.9578 22.1054V22.1065ZM31.7051 20.2705C31.6962 20.1354 31.6586 20.0003 31.5921 19.8653C31.5245 19.7302 31.4192 19.6164 31.2752 19.5238C31.1312 19.4311 30.9494 19.3843 30.7312 19.3843C30.4797 19.3843 30.2669 19.4658 30.093 19.6276C29.919 19.7905 29.8049 20.0048 29.7506 20.2705H31.7051Z" fill="#5F6368"/>
<path d="M33.5696 22.1074C33.3369 21.9601 33.1541 21.7558 33.02 21.4969C32.886 21.2368 32.8184 20.9433 32.8184 20.614C32.8184 20.2848 32.8848 19.9956 33.02 19.7345C33.1541 19.4733 33.3369 19.268 33.5696 19.1206C33.8023 18.9733 34.0604 18.8985 34.3463 18.8985C34.5934 18.8985 34.8139 18.9543 35.0066 19.0659C35.1994 19.1775 35.3456 19.3159 35.4465 19.4811H35.472L35.4465 19.0313V17.6953H35.9805V22.228H35.472V21.7536H35.4465C35.3456 21.9143 35.1994 22.0504 35.0066 22.1621C34.8139 22.2737 34.5934 22.3295 34.3463 22.3295C34.0615 22.3295 33.8023 22.2558 33.5696 22.1074ZM34.9335 21.69C35.0952 21.5884 35.2249 21.4455 35.3235 21.2591C35.4221 21.0739 35.4709 20.8584 35.4709 20.6129C35.4709 20.3674 35.4221 20.153 35.3235 19.9667C35.2249 19.7814 35.0952 19.6374 34.9335 19.5358C34.7718 19.4342 34.5978 19.384 34.4083 19.384C34.2188 19.384 34.0504 19.4342 33.8865 19.5358C33.7236 19.6374 33.5918 19.7814 33.4942 19.97C33.3956 20.1575 33.3469 20.3718 33.3469 20.6129C33.3469 20.854 33.3956 21.0683 33.4942 21.2558C33.5929 21.4433 33.7236 21.5884 33.8865 21.69C34.0504 21.7915 34.2233 21.8418 34.4083 21.8418C34.5934 21.8418 34.7718 21.7915 34.9335 21.69Z" fill="#5F6368"/>
<path d="M17.2977 28.785C16.9421 28.5785 16.6617 28.2938 16.459 27.9333C16.2562 27.5729 16.1543 27.1699 16.1543 26.7268C16.1543 26.2837 16.2562 25.8819 16.459 25.5203C16.6617 25.1598 16.9421 24.8752 17.2977 24.6687C17.6534 24.4622 18.0501 24.3584 18.4855 24.3584C18.8201 24.3584 19.127 24.4231 19.4062 24.5515C19.6843 24.6798 19.927 24.8629 20.132 25.0995L19.7486 25.4734C19.5768 25.2669 19.3896 25.1151 19.1857 25.018C18.983 24.9209 18.7492 24.8729 18.4855 24.8729C18.1586 24.8729 17.8595 24.9499 17.5869 25.104C17.3143 25.258 17.0972 25.4756 16.9365 25.7558C16.7748 26.0371 16.695 26.3607 16.695 26.7279C16.695 27.0951 16.7759 27.4188 16.9365 27.7001C17.0983 27.9813 17.3143 28.1979 17.5869 28.3519C17.8595 28.5059 18.1586 28.5829 18.4855 28.5829C19.0306 28.5829 19.4926 28.3575 19.8749 27.9054L20.2649 28.285C20.0555 28.5338 19.7973 28.7314 19.4915 28.8765C19.1857 29.0216 18.85 29.0952 18.4855 29.0952C18.0501 29.0952 17.6534 28.9914 17.2977 28.785Z" fill="#5F6368"/>
<path d="M21.0957 24.4619H21.8691L23.3017 28.1786H23.3272L24.7598 24.4619H25.5331V28.9945H25.0058V26.1138L25.0313 25.2532H25.0058L23.5355 28.9945H23.0956L21.6253 25.2532H21.5998L21.6253 26.1138V28.9945H21.0979V24.4619H21.0957Z" fill="#5F6368"/>
<path d="M26.6035 24.4621H28.1181C28.3696 24.4621 28.6023 24.519 28.8161 24.6328C29.03 24.7466 29.2006 24.9063 29.328 25.1105C29.4554 25.3147 29.5197 25.5469 29.5197 25.8036C29.5197 26.0603 29.4554 26.2925 29.328 26.4967C29.2006 26.701 29.03 26.8606 28.8161 26.9745C28.6023 27.0883 28.3696 27.1452 28.1181 27.1452H27.1309V28.9935H26.6035V24.4609V24.4621ZM28.1303 26.634C28.2976 26.634 28.445 26.5939 28.5735 26.5135C28.7009 26.4331 28.8006 26.3293 28.8715 26.2032C28.9424 26.0771 28.9779 25.9432 28.9779 25.8048C28.9779 25.6663 28.9424 25.5324 28.8715 25.4063C28.8006 25.2802 28.7009 25.1764 28.5735 25.096C28.4461 25.0156 28.2976 24.9755 28.1303 24.9755H27.1309V26.634H28.1303Z" fill="#5F6368"/>
<path d="M13.4199 31.2296H14.9345C15.186 31.2296 15.4187 31.2865 15.6326 31.4004C15.8464 31.5143 16.017 31.6738 16.1445 31.8781C16.2718 32.0824 16.3361 32.3145 16.3361 32.5712C16.3361 32.8279 16.2718 33.0601 16.1445 33.2644C16.017 33.4686 15.8464 33.6282 15.6326 33.742C15.4187 33.8559 15.186 33.9128 14.9345 33.9128H13.9473V35.7612H13.4199V31.2285V31.2296ZM14.9467 33.4016C15.114 33.4016 15.2614 33.3615 15.3899 33.2811C15.5173 33.2008 15.617 33.0969 15.688 32.9708C15.7589 32.8447 15.7943 32.7107 15.7943 32.5723C15.7943 32.4339 15.7589 32.3 15.688 32.1739C15.617 32.0478 15.5173 31.944 15.3899 31.8636C15.2625 31.7833 15.114 31.7431 14.9467 31.7431H13.9473V33.4016H14.9467Z" fill="#5F6368"/>
<path d="M17.2678 35.724C17.0839 35.6314 16.941 35.5031 16.8402 35.3412C16.7393 35.1783 16.6895 34.9941 16.6895 34.7876C16.6895 34.4461 16.8169 34.1793 17.0728 33.9862C17.3288 33.7943 17.6512 33.6983 18.0412 33.6983C18.234 33.6983 18.4135 33.7195 18.5786 33.7619C18.7436 33.8043 18.8711 33.8523 18.9586 33.907V33.7106C18.9586 33.4695 18.8744 33.2764 18.7071 33.1313C18.5398 32.9862 18.3282 32.9125 18.0722 32.9125C17.8916 32.9125 17.7265 32.9516 17.5759 33.0297C17.4252 33.1079 17.3055 33.2161 17.218 33.3556L16.8158 33.0521C16.941 32.8578 17.1138 32.706 17.3343 32.5967C17.5548 32.4873 17.7985 32.4326 18.0667 32.4326C18.5021 32.4326 18.8445 32.5476 19.0938 32.7775C19.3431 33.0074 19.4683 33.321 19.4683 33.7173V35.762H18.9597V35.2999H18.9342C18.8423 35.4562 18.7038 35.589 18.5198 35.6984C18.3359 35.8078 18.1276 35.8625 17.8972 35.8625C17.6667 35.8625 17.4529 35.8156 17.269 35.7229L17.2678 35.724ZM18.4489 35.2497C18.6041 35.1571 18.727 35.0321 18.8201 34.8758C18.9121 34.7196 18.9586 34.5488 18.9586 34.3635C18.8578 34.2966 18.7348 34.2407 18.5874 34.1994C18.4412 34.157 18.2861 34.1358 18.1221 34.1358C17.8285 34.1358 17.608 34.1972 17.4595 34.32C17.3111 34.4427 17.2368 34.6012 17.2368 34.7943C17.2368 34.9718 17.3033 35.1147 17.4373 35.2252C17.5714 35.3345 17.741 35.3892 17.9459 35.3892C18.1265 35.3892 18.2938 35.3423 18.4489 35.2497Z" fill="#5F6368"/>
<path d="M20.2695 32.534H20.7781V33.0463H20.8036C20.8789 32.8565 21.0064 32.7092 21.187 32.6032C21.3676 32.4983 21.5637 32.4446 21.7775 32.4446C21.8695 32.4446 21.947 32.4514 22.0102 32.4636V33.015C21.9393 32.9983 21.8429 32.9893 21.721 32.9893C21.4484 32.9893 21.228 33.0797 21.0584 33.2617C20.8889 33.4436 20.8036 33.6791 20.8036 33.9704V35.7618H20.2695V32.5328V32.534ZM23.5215 35.7507C23.4106 35.7083 23.3176 35.6513 23.2423 35.5799C23.158 35.4995 23.096 35.4069 23.0539 35.3008C23.0118 35.1959 22.9907 35.0665 22.9907 34.9147V33.0217H22.4312V32.534H22.9907V31.6221H23.5248V32.534H24.3037V33.0217H23.5248V34.7818C23.5248 34.9593 23.558 35.0899 23.6256 35.1747C23.7054 35.2673 23.8206 35.3143 23.9713 35.3143C24.0931 35.3143 24.2106 35.2785 24.3236 35.2071V35.7328C24.2605 35.7629 24.1973 35.783 24.1319 35.7964C24.0666 35.8087 23.9846 35.8154 23.8838 35.8154C23.7541 35.8154 23.6334 35.7942 23.5226 35.7518L23.5215 35.7507Z" fill="#5F6368"/>
<path d="M25.0469 32.5342H25.5554V33.0085H25.5809C25.6685 32.8478 25.8092 32.7116 26.002 32.6C26.1947 32.4884 26.3997 32.4326 26.618 32.4326C27.0036 32.4326 27.2983 32.5453 27.501 32.7708C27.7038 32.9963 27.8058 33.3032 27.8058 33.6916V35.762H27.2717V33.7742C27.2717 33.475 27.2008 33.2574 27.0579 33.1224C26.9149 32.9873 26.7211 32.9192 26.4729 32.9192C26.3011 32.9192 26.1471 32.9683 26.0108 33.0643C25.8745 33.1614 25.7693 33.2887 25.6939 33.4472C25.6186 33.6056 25.5809 33.7709 25.5809 33.9438V35.7609H25.0469V32.5319V32.5342Z" fill="#5F6368"/>
<path d="M29.2371 35.6426C28.9945 35.4953 28.805 35.291 28.6687 35.0321C28.5324 34.772 28.4648 34.4807 28.4648 34.1548C28.4648 33.8289 28.5291 33.5554 28.6565 33.2942C28.7839 33.0331 28.9657 32.8232 29.2006 32.667C29.4354 32.5107 29.708 32.4326 30.0171 32.4326C30.3263 32.4326 30.6032 32.5029 30.8337 32.6446C31.0641 32.7864 31.2414 32.9817 31.3644 33.2306C31.4874 33.4795 31.5495 33.7641 31.5495 34.0856C31.5495 34.1492 31.5428 34.2039 31.5306 34.2496H28.9978C29.01 34.4941 29.0687 34.7017 29.174 34.8702C29.2781 35.0388 29.4121 35.166 29.5728 35.2497C29.7346 35.3345 29.903 35.3758 30.0792 35.3758C30.4902 35.3758 30.806 35.1816 31.0287 34.7932L31.4808 35.0153C31.3423 35.2776 31.155 35.4841 30.9179 35.6359C30.6808 35.7877 30.395 35.8636 30.0603 35.8636C29.7545 35.8636 29.4797 35.7899 29.2371 35.6415V35.6426ZM30.9844 33.8065C30.9755 33.6715 30.9379 33.5364 30.8714 33.4014C30.8038 33.2664 30.6985 33.1525 30.5545 33.0599C30.4104 32.9672 30.2287 32.9203 30.0105 32.9203C29.759 32.9203 29.5462 33.0018 29.3723 33.1637C29.1983 33.3266 29.0842 33.5409 29.0299 33.8065H30.9844Z" fill="#5F6368"/>
<path d="M32.2344 32.5343H32.7429V33.0533H32.7684C32.8315 32.8758 32.9523 32.7296 33.1329 32.6136C33.3135 32.4975 33.5019 32.4395 33.6991 32.4395C33.8453 32.4395 33.9717 32.4606 34.0758 32.5031V33.0857C33.9417 33.0187 33.7911 32.9841 33.6237 32.9841C33.4686 32.9841 33.3257 33.0288 33.1961 33.1169C33.0665 33.2051 32.9623 33.3245 32.8848 33.4752C32.8072 33.6248 32.7684 33.7866 32.7684 33.9596V35.7644H32.2344V32.5354V32.5343Z" fill="#5F6368"/>
</g>
</g>
<defs>
<clipPath id="clip0_9157_121">
<rect width="45.8347" height="50.0015" fill="white" transform="translate(0.667969)"/>
</clipPath>
</defs>
</svg>
