<?xml version="1.0" encoding="utf-8"?>
<!-- Generator: Adobe Illustrator 26.2.1, SVG Export Plug-In . SVG Version: 6.00 Build 0)  -->
<svg version="1.1" id="Capa_1" xmlns="http://www.w3.org/2000/svg" xmlns:xlink="http://www.w3.org/1999/xlink" x="0px" y="0px"
	 viewBox="0 0 1920 1080" style="enable-background:new 0 0 1920 1080;" xml:space="preserve">
<style type="text/css">
	.st0{fill:#2C2A29;}
</style>
<g>
	<path class="st0" d="M627.77,344.71c11.99-2.7,24.12-4.05,36.41-4.05c12.59,0,24.72,1.35,36.41,4.05l-77.31,295.31
		c-13.48,2.4-26.67,3.6-39.55,3.6c-11.69,0-25.02-1.2-40-3.6L489.78,441.8l-54.84,198.22c-13.48,2.4-26.37,3.6-38.66,3.6
		c-11.69,0-25.02-1.2-40-3.6l-77.76-295.31c12.29-2.7,24.42-4.05,36.41-4.05c12.29,0,24.42,1.35,36.41,4.05l50.34,208.11
		l48.54-208.11c12.59-2.7,25.77-4.05,39.55-4.05c13.78,0,26.67,1.35,38.66,4.05l58.43,209.01L627.77,344.71z"/>
	<path class="st0" d="M805.45,644.07c-23.67,0-44.35-4.8-62.03-14.38c-17.68-9.59-31.31-23.22-40.9-40.9
		c-9.59-17.98-14.38-38.66-14.38-62.03c0-23.67,4.94-44.2,14.83-61.58c9.89-17.68,23.67-31.31,41.35-40.9
		c17.98-9.59,38.36-14.38,61.13-14.38c23.67,0,44.35,4.94,62.03,14.83c17.68,9.59,31.31,23.22,40.9,40.9
		c9.59,17.68,14.38,38.06,14.38,61.13c0,23.97-4.79,44.8-14.38,62.48c-9.59,17.68-23.22,31.31-40.9,40.9
		C849.8,639.42,829.13,644.07,805.45,644.07z M805.45,585.63c15.88,0,28.02-4.94,36.41-14.83c8.69-10.19,13.04-24.87,13.04-44.05
		c0-18.58-4.35-32.96-13.04-43.15c-8.69-10.19-20.83-15.28-36.41-15.28c-15.28,0-27.42,5.24-36.41,15.73
		c-8.69,10.19-13.03,24.42-13.03,42.7c0,19.18,4.35,33.86,13.03,44.05C777.74,580.69,789.87,585.63,805.45,585.63z"/>
	<path class="st0" d="M1199.67,410.34c25.17,0,46,6.29,62.48,18.88s24.72,29.37,24.72,50.34v160.02h-66.97V503.38
		c0-11.69-3.75-20.53-11.24-26.52c-7.19-6.29-17.53-9.44-31.01-9.44c-11.99,0-23.53,2.25-34.62,6.74c3.6,9.89,5.4,20.68,5.4,32.36
		v133.05h-66.98V503.38c0-11.69-3.75-20.53-11.24-26.52c-7.19-6.29-17.53-9.44-31.01-9.44c-10.19,0-19.78,1.2-28.77,3.6v168.56
		h-67.87l0.45-200.02c13.19-9.29,29.37-16.48,48.54-21.58c19.18-5.09,37.91-7.64,56.18-7.64c13.78,0,26.67,2.25,38.66,6.74
		c11.98,4.2,22.47,10.19,31.46,17.98c11.69-7.49,24.88-13.48,39.56-17.98C1172.1,412.58,1186.19,410.34,1199.67,410.34z"/>
	<path class="st0" d="M1417.45,410.34c41.05,0,73.12,10.79,96.19,32.36c23.38,21.58,35.07,52.14,35.07,91.69
		c0,32.66-8.1,59.18-24.28,79.56c-15.88,20.08-40,30.12-72.37,30.12c-10.49,0-21.12-1.65-31.91-4.94
		c-10.79-3.6-20.83-8.54-30.12-14.83v83.15c-7.19,5.69-17.98,10.79-32.36,15.28c-14.09,4.49-25.92,6.74-35.51,6.74v-301.6
		c11.39-5.39,25.47-9.59,42.25-12.59C1381.49,411.98,1399.17,410.34,1417.45,410.34z M1423.29,587.43c18.88,0,33.27-4.8,43.16-14.38
		c9.89-9.59,14.83-25.17,14.83-46.75c0-17.98-5.1-32.81-15.28-44.5c-9.89-11.69-24.73-17.53-44.5-17.53c-9.89,0-20.38,0.9-31.47,2.7
		v117.31C1400.52,586.38,1411.61,587.43,1423.29,587.43z"/>
	<path class="st0" d="M1606.42,380.22c-9.59,0-17.83-3.3-24.72-9.89c-6.59-6.89-9.89-15.13-9.89-24.72
		c0-9.59,3.44-17.68,10.34-24.27c6.89-6.89,14.98-10.34,24.27-10.34c9.59,0,17.83,3.45,24.72,10.34
		c6.9,6.59,10.34,14.68,10.34,24.27c0,9.29-3.44,17.38-10.34,24.27C1624.25,376.77,1616,380.22,1606.42,380.22z M1572.71,416.63
		c9.89-4.2,21.28-6.29,34.16-6.29c12.59,0,23.82,2.1,33.71,6.29v222.94h-67.87V416.63z"/>
	<path class="st0" d="M345.19,758.38V712.2c0-4.64,3.25-8.62,7.81-9.46c22.55-4.14,89.71-15.55,145.46-15.55
		c55.89,0,124.88,11.46,147.85,15.58c4.59,0.82,7.85,4.81,7.85,9.47v46.38c0,6.7-6.66,11.65-13.18,10.09
		c-20.95-5-67.33-13.4-142.51-13.4c-74.3,0-119.29,8.2-139.87,13.22C352.01,770.14,345.19,765.15,345.19,758.38z"/>
</g>
</svg>
